<?xml version="1.0" encoding="UTF-8" standalone="no"?>
<svg
   viewBox="0 0 65.006119 19.505059"
   id="zserio-logo"
   version="1.1"
   sodipodi:docname="Zserio.svg"
   width="65.006119"
   height="19.505058"
   inkscape:version="1.2.1 (9c6d41e410, 2022-07-14)"
   xmlns:inkscape="http://www.inkscape.org/namespaces/inkscape"
   xmlns:sodipodi="http://sodipodi.sourceforge.net/DTD/sodipodi-0.dtd"
   xmlns="http://www.w3.org/2000/svg"
   xmlns:svg="http://www.w3.org/2000/svg"
   xmlns:rdf="http://www.w3.org/1999/02/22-rdf-syntax-ns#"
   xmlns:cc="http://creativecommons.org/ns#"
   xmlns:dc="http://purl.org/dc/elements/1.1/">
  <metadata
     id="metadata21">
    <rdf:RDF>
      <cc:Work
         rdf:about="">
        <dc:format>image/svg+xml</dc:format>
        <dc:type
           rdf:resource="http://purl.org/dc/dcmitype/StillImage" />
        <dc:title />
      </cc:Work>
    </rdf:RDF>
  </metadata>
  <defs
     id="defs19" />
  <sodipodi:namedview
     pagecolor="#ffffff"
     bordercolor="#666666"
     borderopacity="1"
     objecttolerance="10"
     gridtolerance="10"
     guidetolerance="10"
     inkscape:pageopacity="0"
     inkscape:pageshadow="2"
     inkscape:window-width="1920"
     inkscape:window-height="935"
     id="namedview17"
     showgrid="false"
     inkscape:zoom="10.393597"
     inkscape:cx="40.313281"
     inkscape:cy="12.988766"
     inkscape:window-x="0"
     inkscape:window-y="32"
     inkscape:window-maximized="1"
     inkscape:showpageshadow="2"
     inkscape:pagecheckerboard="0"
     inkscape:deskcolor="#d1d1d1"
     inkscape:current-layer="zserio-logo" />
  <rect
     style="fill:#ffffff;stroke:none;stroke-width:1.15207"
     id="rect388"
     width="65.006119"
     height="19.505058"
     x="0"
     y="0" />
  <g
     id="zserio-logo-serio"
     fill="currentColor"
     transform="translate(2.4819595,2.1419962)">
    <path
       d="m 21.733415,11.886839 q 0,1.508249 -1.251904,2.474278 -1.242093,0.966048 -3.400868,0.966048 -1.222375,0 -2.24756,-0.285874 -1.015376,-0.295725 -1.705339,-0.640746 v -2.079999 h 0.09857 q 0.877324,0.660455 1.951776,1.054813 1.074434,0.38445 2.06028,0.38445 1.222375,0 1.912339,-0.394309 0.689963,-0.394309 0.690033,-1.242094 0,-0.650605 -0.37459,-0.985767 -0.37459,-0.335162 -1.439184,-0.571739 -0.394309,-0.08872 -1.035094,-0.207009 -0.630886,-0.118294 -1.153309,-0.256297 -1.449092,-0.384449 -2.06028,-1.1237795 -0.601318,-0.74918 -0.601318,-1.8335618 0,-0.6801737 0.276016,-1.2815312 0.285874,-0.6013179 0.857614,-1.0744331 0.552031,-0.4633054 1.399746,-0.7294612 0.857614,-0.2760152 1.912338,-0.2760152 0.985757,0 1.991214,0.2464369 1.015375,0.2365873 1.68562,0.5815989 V 6.593252 h -0.09857 Q 20.491193,6.0707998 19.475886,5.7159287 18.460511,5.3511981 17.484672,5.3511981 q -1.015375,0 -1.715248,0.394309 -0.699893,0.3844494 -0.699893,1.1533088 0,0.6801737 0.423878,1.0251853 0.414018,0.3450117 1.340589,0.5618801 0.512592,0.1182937 1.143499,0.2365873 0.640745,0.1182937 1.064623,0.2168685 1.291341,0.2957242 1.991214,1.0153751 0.699893,0.7294608 0.699893,1.9320578 z"
       inkscape:connector-curvature="0"
       id="path5" />
    <path
       d="m 33.611336,9.75789 h -8.112798 q 0,1.015375 0.305584,1.774405 0.305584,0.74918 0.837895,1.232184 0.512593,0.473165 1.212466,0.709752 0.709752,0.236588 1.557497,0.236588 1.12378,0 2.25737,-0.443597 1.143499,-0.453445 1.626463,-0.887182 h 0.09857 v 2.020842 q -0.93647,0.394309 -1.912338,0.660464 -0.975908,0.266156 -2.050371,0.266156 -2.740434,0 -4.278212,-1.478621 -1.537778,-1.48853 -1.537778,-4.2190549 0,-2.7009959 1.468812,-4.2880217 1.478621,-1.5871249 3.883932,-1.5871249 2.227841,0 3.430497,1.3012502 1.212465,1.3012502 1.212465,3.6966524 z M 31.807402,8.3384254 Q 31.797592,6.879523 31.068081,6.0810556 30.34848,5.2825882 28.869868,5.2825882 q -1.48853,0 -2.375683,0.8773233 -0.877323,0.8773232 -0.995656,2.1784941 z"
       inkscape:connector-curvature="0"
       id="path7" />
    <path
       d="m 43.29144,5.9437168 h -0.09857 q -0.414018,-0.102895 -0.808327,-0.1440471 -0.38445,-0.051448 -0.916761,-0.051448 -0.857615,0 -1.656092,0.401275 -0.798467,0.3909894 -1.537778,1.0186454 V 15.327413 H 36.420627 V 3.8339614 h 1.853281 v 1.6977094 q 1.104061,-0.926026 1.941966,-1.3067001 0.847755,-0.3909894 1.725058,-0.3909894 0.483025,0 0.699893,0.030867 0.216869,0.020581 0.650605,0.0926 z"
       inkscape:connector-curvature="0"
       id="path9" />
    <path
       d="M 47.047943,1.9938894 H 44.958134 V 0 h 2.089809 z M 46.929649,15.327443 h -1.85328 V 3.9063269 h 1.85328 z"
       inkscape:connector-curvature="0"
       id="path11" />
    <path
       d="m 60,9.521263 q 0,2.691087 -1.380027,4.248683 -1.380027,1.557497 -3.696652,1.557497 -2.336246,0 -3.716272,-1.557497 -1.370217,-1.557497 -1.370217,-4.248683 0,-2.6910868 1.370217,-4.2485838 1.380026,-1.567406 3.716272,-1.567406 2.316526,0 3.696652,1.567406 Q 60,6.8301762 60,9.521263 Z m -1.912338,0 q 0,-2.1390563 -0.837896,-3.1741507 -0.837895,-1.0449043 -2.326435,-1.0449043 -1.508249,0 -2.346155,1.0449043 -0.828036,1.0350944 -0.828036,3.1741507 0,2.07009 0.837896,3.144622 0.837895,1.064623 2.336245,1.064623 1.478622,0 2.316527,-1.054813 0.847755,-1.064624 0.847755,-3.154432 z"
       inkscape:connector-curvature="0"
       id="path13" />
    <path
       d="m 50.913445,11.328962 6.825816,-5.1857769 1.18482,1.5595778 -6.825817,5.1857771 z"
       inkscape:connector-curvature="0"
       id="path15" />
  </g>
  <path
     id="zserio-logo-z"
     d="M 12.881457,17.469241 H 2.4819595 V 15.192152 L 8.3176683,8.9916935 H 2.7185865 V 6.3991022 H 12.773251 V 8.6367531 L 7.0262281,14.827302 h 5.8554269 z"
     inkscape:connector-curvature="0"
     style="fill:#ff0000" />
  <rect
     style="fill:none;stroke:#000000;stroke-width:0.390712;stroke-dasharray:none;stroke-opacity:1"
     id="rect1104"
     width="62.883789"
     height="17.748129"
     x="1.1559464"
     y="0.92408222"
     inkscape:export-filename="Zserio.png"
     inkscape:export-xdpi="2658.2114"
     inkscape:export-ydpi="2658.2114" />
</svg>
